<svg xmlns="http://www.w3.org/2000/svg" xmlns:xlink="http://www.w3.org/1999/xlink" version="1.1" width="222.81010230179027" height="435.59375" viewBox="0 0 200 391" xml:space="preserve">

<g id="SvgjsG4940" featurekey="rootContainer" transform="matrix(1,0,0,1,0,0)" fill="#f66900">
<path xmlns="http://www.w3.org/2000/svg" fill-rule="evenodd" d="M5,65 L100,0 L195, 65 L100, 10 z M5,311 L100,391 L195,306 L100, 381 z"></path>
</g>
<g id="SvgjsG4941" featurekey="symbolFeature-0" transform="matrix(1.035,0,0,1.035,48.65,79.65)" fill="#f66900">
<circle xmlns="http://www.w3.org/2000/svg" stroke="#f66900" stroke-width="2" stroke-linecap="round" stroke-linejoin="round" stroke-miterlimit="10" cx="18" cy="18" r="8"></circle>
<circle xmlns="http://www.w3.org/2000/svg" stroke="#f66900" stroke-width="2" stroke-linecap="round" stroke-linejoin="round" stroke-miterlimit="10" cx="34" cy="18" r="3"></circle>
<circle xmlns="http://www.w3.org/2000/svg" stroke="#f66900" stroke-width="2" stroke-linecap="round" stroke-linejoin="round" stroke-miterlimit="10" cx="50" cy="18" r="5.5"></circle>
<circle xmlns="http://www.w3.org/2000/svg" stroke="#f66900" stroke-width="2" stroke-linecap="round" stroke-linejoin="round" stroke-miterlimit="10" cx="66.001" cy="18" r="3"></circle>
<path xmlns="http://www.w3.org/2000/svg" stroke="#f66900" stroke-width="2" stroke-linecap="round" stroke-linejoin="round" stroke-miterlimit="10" d="M90,18  c0,4.42-3.579,8.003-8,8.003c-4.417,0-7.999-3.583-7.999-8.003c0-4.417,3.582-8,7.999-8C86.421,10,90,13.583,90,18z"></path>
<path xmlns="http://www.w3.org/2000/svg" stroke="#f66900" stroke-width="2" stroke-linecap="round" stroke-linejoin="round" stroke-miterlimit="10" d="M39.5,34.002  c0,3.035-2.463,5.498-5.501,5.498c-3.036,0-5.499-2.463-5.499-5.498c0-3.04,2.463-5.502,5.499-5.502  C37.038,28.5,39.5,30.962,39.5,34.002z"></path>
<circle xmlns="http://www.w3.org/2000/svg" stroke="#f66900" stroke-width="2" stroke-linecap="round" stroke-linejoin="round" stroke-miterlimit="10" cx="50" cy="34" r="2.999"></circle>
<path xmlns="http://www.w3.org/2000/svg" stroke="#f66900" stroke-width="2" stroke-linecap="round" stroke-linejoin="round" stroke-miterlimit="10" d="M71.499,34.002  c0,3.035-2.459,5.498-5.498,5.498c-3.038,0-5.503-2.463-5.503-5.498c0-3.04,2.465-5.502,5.503-5.502  C69.04,28.5,71.499,30.962,71.499,34.002z"></path>
<circle xmlns="http://www.w3.org/2000/svg" stroke="#f66900" stroke-width="2" stroke-linecap="round" stroke-linejoin="round" stroke-miterlimit="10" cx="34" cy="50.001" r="3"></circle><circle xmlns="http://www.w3.org/2000/svg" stroke="#f66900" stroke-width="2" stroke-linecap="round" stroke-linejoin="round" stroke-miterlimit="10" cx="50" cy="50.001" r="8.001"></circle>
<circle xmlns="http://www.w3.org/2000/svg" stroke="#f66900" stroke-width="2" stroke-linecap="round" stroke-linejoin="round" stroke-miterlimit="10" cx="66.001" cy="50.001" r="3"></circle><path xmlns="http://www.w3.org/2000/svg" stroke="#f66900" stroke-width="2" stroke-linecap="round" stroke-linejoin="round" stroke-miterlimit="10" d="M39.5,66.002  c0,3.035-2.463,5.498-5.501,5.498c-3.036,0-5.499-2.463-5.499-5.498c0-3.041,2.463-5.502,5.499-5.502  C37.038,60.5,39.5,62.961,39.5,66.002z"></path>
<circle xmlns="http://www.w3.org/2000/svg" stroke="#f66900" stroke-width="2" stroke-linecap="round" stroke-linejoin="round" stroke-miterlimit="10" cx="49.999" cy="66" r="3"></circle><path xmlns="http://www.w3.org/2000/svg" stroke="#f66900" stroke-width="2" stroke-linecap="round" stroke-linejoin="round" stroke-miterlimit="10" d="M71.499,66.002  c0,3.035-2.459,5.498-5.498,5.498c-3.038,0-5.503-2.463-5.503-5.498c0-3.041,2.465-5.502,5.503-5.502  C69.04,60.5,71.499,62.961,71.499,66.002z"></path>
<path xmlns="http://www.w3.org/2000/svg" stroke="#f66900" stroke-width="2" stroke-linecap="round" stroke-linejoin="round" stroke-miterlimit="10" d="M26,82  c0,4.416-3.583,7.998-8.001,7.998C13.579,89.998,10,86.416,10,82c0-4.422,3.579-7.998,7.999-7.998C22.418,74.002,26,77.578,26,82z"></path>
<circle xmlns="http://www.w3.org/2000/svg" stroke="#f66900" stroke-width="2" stroke-linecap="round" stroke-linejoin="round" stroke-miterlimit="10" cx="34" cy="82" r="3"></circle><circle xmlns="http://www.w3.org/2000/svg" stroke="#f66900" stroke-width="2" stroke-linecap="round" stroke-linejoin="round" stroke-miterlimit="10" cx="50" cy="82" r="5.5"></circle>
<circle xmlns="http://www.w3.org/2000/svg" stroke="#f66900" stroke-width="2" stroke-linecap="round" stroke-linejoin="round" stroke-miterlimit="10" cx="66" cy="82" r="2.999"></circle><circle xmlns="http://www.w3.org/2000/svg" stroke="#f66900" stroke-width="2" stroke-linecap="round" stroke-linejoin="round" stroke-miterlimit="10" cx="17.999" cy="66" r="3"></circle>
<path xmlns="http://www.w3.org/2000/svg" stroke="#f66900" stroke-width="2" stroke-linecap="round" stroke-linejoin="round" stroke-miterlimit="10" d="M17.999,44.501  c3.039,0,5.5,2.46,5.5,5.5c0,3.036-2.462,5.499-5.5,5.499c-3.037,0-5.498-2.463-5.498-5.499  C12.501,46.961,14.962,44.501,17.999,44.501z"></path>
<circle xmlns="http://www.w3.org/2000/svg" stroke="#f66900" stroke-width="2" stroke-linecap="round" stroke-linejoin="round" stroke-miterlimit="10" cx="17.999" cy="34.001" r="3"></circle><circle xmlns="http://www.w3.org/2000/svg" stroke="#f66900" stroke-width="2" stroke-linecap="round" stroke-linejoin="round" stroke-miterlimit="10" cx="82" cy="66" r="3"></circle>
<path xmlns="http://www.w3.org/2000/svg" stroke="#f66900" stroke-width="2" stroke-linecap="round" stroke-linejoin="round" stroke-miterlimit="10" d="M82,44.503  c3.039,0,5.503,2.46,5.503,5.498c0,3.036-2.464,5.499-5.503,5.499c-3.035,0-5.498-2.463-5.498-5.499  C76.502,46.963,78.965,44.503,82,44.503z"></path>
<circle xmlns="http://www.w3.org/2000/svg" stroke="#f66900" stroke-width="2" stroke-linecap="round" stroke-linejoin="round" stroke-miterlimit="10" cx="82" cy="34.001" r="2.999"></circle><path xmlns="http://www.w3.org/2000/svg" stroke="#f66900" stroke-width="2" stroke-linecap="round" stroke-linejoin="round" stroke-miterlimit="10" d="M90,82  c0,4.416-3.579,8-8,8c-4.417,0-7.999-3.584-7.999-8c0-4.422,3.582-8,7.999-8C86.421,74,90,77.578,90,82z"></path>
</g>
<g id="SvgjsG4942" featurekey="nameFeature-0" transform="matrix(3.1060724009286558,0,0,3.1060724009286558,-1.2424277754988728,156.96955303999206)" fill="#f66900">
<path d="M15.4 12 l0 21.8 c0 3.8 -2.8 6.6 -7 6.6 l-8 0 l0 -2.6 l8 0 c2.2 0 4 -1.8 4 -4 l0 -21.8 l3 0 z M36.894999999999996 12 l0 19 l3.8 0 l0 2.6 l-3.8 0 l0 6.4 l-3 0 l0 -6.4 l-14.6 0 l0 -2.6 l14 -19 l3.6 0 z M33.695 15.8 l-11 15 l0 0.2 l11.2 0 l0 -15.2 l-0.2 0 z M64.79 18.2 l0 15.6 c0 3.8 -2.8 6.6 -7 6.6 l-2 0 l3.6 4.8 l0 1.2 l-3 0 l-3.6 -6 l-2 0 c-4.2 0 -7 -2.8 -7 -6.6 l0 -15.6 c0 -3.8 2.8 -6.6 7 -6.6 l7 0 c4.2 0 7 2.8 7 6.6 z M46.790000000000006 33.8 c0 2.2 1.8 4 4 4 l7 0 c2.2 0 4 -1.8 4 -4 l0 -15.6 c0 -2.2 -1.8 -4 -4 -4 l-7 0 c-2.2 0 -4 1.8 -4 4 l0 15.6 z"></path>
</g>
</svg>
