<svg xmlns="http://www.w3.org/2000/svg" xmlns:xlink="http://www.w3.org/1999/xlink" version="1.1" width="406" height="46" viewBox="0 0 406 46" xml:space="preserve">
<g>
    <path
    style="stroke: none; stroke-width: 1; stroke-dasharray: none; stroke-linecap: butt; stroke-dashoffset: 0; stroke-linejoin: miter; stroke-miterlimit: 4; is-custom-font: none; font-file-url: none; fill: rgb(246,105,0); fill-rule: nonzero; opacity: 1;"
    vector-effect="non-scaling-stroke"
    transform=" translate(-0.0, 44.0)"
    d="M 38.619986983023544 -7.21 L 38.619986983023544 -7.21 L 38.619986983023544 -43.24 L 43.479986983023544 -43.24 L 43.479986983023544 -7.21 Q 43.479986983023544 -4.2 41.37998698302355 -2.1 Q 39.27998698302355 0 36.26998698302355 0 L 36.26998698302355 0 L 7.449986983023547 0 Q 4.439986983023547 0 2.3399869830235467 -2.1 Q 0.23998698302354682 -4.2 0.23998698302354682 -7.21 L 0.23998698302354682 -7.21 L 0.23998698302354682 -10.63 L 5.0999869830235465 -10.63 L 5.0999869830235465 -7.21 Q 5.0999869830235465 -6.25 5.799986983023547 -5.56 Q 6.489986983023547 -4.86 7.449986983023547 -4.86 L 7.449986983023547 -4.86 L 36.26998698302355 -4.86 Q 37.229986983023544 -4.86 37.92998698302355 -5.56 Q 38.619986983023544 -6.25 38.619986983023544 -7.21 Z M 53.92726692669764 -43.24 L 93.38726692669763 -43.24 L 93.38726692669763 -38.38 L 58.797266926697645 -38.38 L 58.797266926697645 -24.08 L 86.59726692669764 -24.08 L 86.59726692669764 -19.16 L 58.797266926697645 -19.16 L 58.797266926697645 -4.86 L 93.38726692669763 -4.86 L 93.38726692669763 0 L 53.92726692669764 0 L 53.92726692669764 -43.24 Z M 146.35374651723563 -36.03 L 146.35374651723563 -36.03 L 146.35374651723563 -34.35 L 141.49374651723565 -34.35 L 141.49374651723565 -36.03 Q 141.49374651723565 -36.99 140.80374651723565 -37.69 Q 140.11374651723565 -38.38 139.15374651723565 -38.38 L 139.15374651723565 -38.38 L 110.32374651723563 -38.38 Q 109.36374651723564 -38.38 108.67374651723564 -37.69 Q 107.98374651723563 -36.99 107.98374651723563 -36.03 L 107.98374651723563 -36.03 L 107.98374651723563 -26.36 Q 107.98374651723563 -25.4 108.67374651723564 -24.74 Q 109.36374651723564 -24.08 110.32374651723563 -24.08 L 110.32374651723563 -24.08 L 139.15374651723565 -24.08 Q 142.15374651723565 -24.08 144.25374651723564 -21.98 Q 146.35374651723563 -19.88 146.35374651723563 -16.88 L 146.35374651723563 -16.88 L 146.35374651723563 -7.21 Q 146.35374651723563 -4.2 144.25374651723564 -2.1 Q 142.15374651723565 0 139.15374651723565 0 L 139.15374651723565 0 L 110.32374651723563 0 Q 107.32374651723563 0 105.21374651723563 -2.1 Q 103.11374651723564 -4.2 103.11374651723564 -7.21 L 103.11374651723564 -7.21 L 103.11374651723564 -8.89 L 107.98374651723563 -8.89 L 107.98374651723563 -7.21 Q 107.98374651723563 -6.25 108.67374651723564 -5.56 Q 109.36374651723564 -4.86 110.32374651723563 -4.86 L 110.32374651723563 -4.86 L 139.15374651723565 -4.86 Q 140.11374651723565 -4.86 140.80374651723565 -5.56 Q 141.49374651723565 -6.25 141.49374651723565 -7.21 L 141.49374651723565 -7.21 L 141.49374651723565 -16.88 Q 141.49374651723565 -17.84 140.80374651723565 -18.5 Q 140.11374651723565 -19.16 139.15374651723565 -19.16 L 139.15374651723565 -19.16 L 110.32374651723563 -19.16 Q 107.32374651723563 -19.16 105.21374651723563 -21.26 Q 103.11374651723564 -23.36 103.11374651723564 -26.36 L 103.11374651723564 -26.36 L 103.11374651723564 -36.03 Q 103.11374651723564 -39.04 105.21374651723563 -41.14 Q 107.32374651723563 -43.24 110.32374651723563 -43.24 L 110.32374651723563 -43.24 L 139.15374651723565 -43.24 Q 142.15374651723565 -43.24 144.25374651723564 -41.14 Q 146.35374651723563 -39.04 146.35374651723563 -36.03 Z M 154.2234001846675 -38.38 L 154.2234001846675 -43.24 L 197.4634001846675 -43.24 L 197.4634001846675 -38.38 L 178.3034001846675 -38.38 L 178.3034001846675 0 L 173.4434001846675 0 L 173.4434001846675 -38.38 L 154.2234001846675 -38.38 Z M 205.6894892167367 -43.24 L 245.1494892167367 -43.24 L 245.1494892167367 -38.38 L 210.5594892167367 -38.38 L 210.5594892167367 -24.08 L 238.3594892167367 -24.08 L 238.3594892167367 -19.16 L 210.5594892167367 -19.16 L 210.5594892167367 -4.86 L 245.1494892167367 -4.86 L 245.1494892167367 0 L 205.6894892167367 0 L 205.6894892167367 -43.24 Z M 298.3559875372575 -35.97 L 298.3559875372575 -35.97 L 298.3559875372575 -23.3 Q 298.3559875372575 -20.3 296.2559875372575 -18.2 Q 294.1559875372575 -16.1 291.1559875372575 -16.1 L 291.1559875372575 -16.1 L 284.5459875372575 -16.1 L 298.11598753725747 0 L 291.6959875372575 0 L 278.17598753725747 -16.1 L 262.3259875372575 -16.1 Q 261.7859875372575 -16.1 259.9859875372575 -16.34 L 259.9859875372575 -16.34 L 259.9859875372575 0 L 255.1159875372575 0 L 255.1159875372575 -43.18 L 291.1559875372575 -43.18 Q 294.1559875372575 -43.18 296.2559875372575 -41.08 Q 298.3559875372575 -38.98 298.3559875372575 -35.97 Z M 262.3259875372575 -21.02 L 262.3259875372575 -21.02 L 291.1559875372575 -21.02 Q 292.11598753725747 -21.02 292.7759875372575 -21.68 Q 293.43598753725746 -22.34 293.43598753725746 -23.3 L 293.43598753725746 -23.3 L 293.43598753725746 -35.97 Q 293.43598753725746 -36.93 292.7759875372575 -37.63 Q 292.11598753725747 -38.32 291.1559875372575 -38.32 L 291.1559875372575 -38.32 L 262.3259875372575 -38.32 Q 261.36598753725747 -38.32 260.67598753725747 -37.63 Q 259.9859875372575 -36.93 259.9859875372575 -35.97 L 259.9859875372575 -35.97 L 259.9859875372575 -23.3 Q 259.9859875372575 -22.34 260.67598753725747 -21.68 Q 261.36598753725747 -21.02 262.3259875372575 -21.02 Z M 340.395779959873 -43.3 L 340.395779959873 -16.1 L 347.12577995987294 -16.1 L 347.12577995987294 -11.17 L 340.395779959873 -11.17 L 340.395779959873 0 L 335.47577995987297 0 L 335.47577995987297 -11.17 L 305.325779959873 -11.17 L 305.325779959873 -16.7 L 334.875779959873 -43.3 L 340.395779959873 -43.3 Z M 335.47577995987297 -16.1 L 335.47577995987297 -35.43 L 311.635779959873 -16.1 L 335.47577995987297 -16.1 Z M 398.6502635677392 -4.86 L 398.6502635677392 -4.86 L 404.5402635677392 -4.86 L 404.5402635677392 0 L 362.8602635677392 0 Q 359.8602635677392 0 357.76026356773923 -2.1 Q 355.6502635677392 -4.2 355.6502635677392 -7.21 L 355.6502635677392 -7.21 L 355.6502635677392 -36.03 Q 355.6502635677392 -39.04 357.76026356773923 -41.14 Q 359.8602635677392 -43.24 362.8602635677392 -43.24 L 362.8602635677392 -43.24 L 391.6902635677392 -43.24 Q 394.6902635677392 -43.24 396.7902635677392 -41.14 Q 398.8902635677392 -39.04 398.8902635677392 -36.03 L 398.8902635677392 -36.03 L 398.8902635677392 -7.21 Q 398.8902635677392 -6.67 398.6502635677392 -4.86 Z M 362.8602635677392 -4.86 L 362.8602635677392 -4.86 L 391.6902635677392 -4.86 Q 392.6502635677392 -4.86 393.3402635677392 -5.56 Q 394.0302635677392 -6.25 394.0302635677392 -7.21 L 394.0302635677392 -7.21 L 394.0302635677392 -36.03 Q 394.0302635677392 -36.99 393.3402635677392 -37.69 Q 392.6502635677392 -38.38 391.6902635677392 -38.38 L 391.6902635677392 -38.38 L 362.8602635677392 -38.38 Q 361.9002635677392 -38.38 361.2102635677392 -37.69 Q 360.5202635677392 -36.99 360.5202635677392 -36.03 L 360.5202635677392 -36.03 L 360.5202635677392 -7.21 Q 360.5202635677392 -6.25 361.2102635677392 -5.56 Q 361.9002635677392 -4.86 362.8602635677392 -4.86 Z"
    stroke-linecap="round"
    />
</g>
</svg>
